<svg id="visual" viewBox="0 0 960 540" preserveAspectRatio="none" xmlns="http://www.w3.org/2000/svg" xmlns:xlink="http://www.w3.org/1999/xlink" version="1.1"><rect x="0" y="0" width="960" height="540" fill="#17212B"></rect><path d="M0 260L16 256.3C32 252.7 64 245.3 96 251.2C128 257 160 276 192 276.8C224 277.7 256 260.3 288 254.7C320 249 352 255 384 262.5C416 270 448 279 480 283.3C512 287.7 544 287.3 576 281.3C608 275.3 640 263.7 672 264.2C704 264.7 736 277.3 768 283.7C800 290 832 290 864 281.2C896 272.3 928 254.7 944 245.8L960 237L960 541L944 541C928 541 896 541 864 541C832 541 800 541 768 541C736 541 704 541 672 541C640 541 608 541 576 541C544 541 512 541 480 541C448 541 416 541 384 541C352 541 320 541 288 541C256 541 224 541 192 541C160 541 128 541 96 541C64 541 32 541 16 541L0 541Z" fill="#1c3973"></path><path d="M0 326L16 325C32 324 64 322 96 319.7C128 317.3 160 314.7 192 313.7C224 312.7 256 313.3 288 316.3C320 319.3 352 324.7 384 327C416 329.3 448 328.7 480 326.8C512 325 544 322 576 316.5C608 311 640 303 672 295.8C704 288.7 736 282.3 768 280C800 277.7 832 279.3 864 280.2C896 281 928 281 944 281L960 281L960 541L944 541C928 541 896 541 864 541C832 541 800 541 768 541C736 541 704 541 672 541C640 541 608 541 576 541C544 541 512 541 480 541C448 541 416 541 384 541C352 541 320 541 288 541C256 541 224 541 192 541C160 541 128 541 96 541C64 541 32 541 16 541L0 541Z" fill="#553a7c"></path><path d="M0 325L16 328.3C32 331.7 64 338.3 96 340.7C128 343 160 341 192 341.7C224 342.3 256 345.7 288 343.7C320 341.7 352 334.3 384 328.8C416 323.3 448 319.7 480 324.5C512 329.3 544 342.7 576 345.3C608 348 640 340 672 340.8C704 341.7 736 351.3 768 355C800 358.7 832 356.3 864 355.2C896 354 928 354 944 354L960 354L960 541L944 541C928 541 896 541 864 541C832 541 800 541 768 541C736 541 704 541 672 541C640 541 608 541 576 541C544 541 512 541 480 541C448 541 416 541 384 541C352 541 320 541 288 541C256 541 224 541 192 541C160 541 128 541 96 541C64 541 32 541 16 541L0 541Z" fill="#82377a"></path><path d="M0 391L16 387C32 383 64 375 96 372C128 369 160 371 192 370.7C224 370.3 256 367.7 288 370.3C320 373 352 381 384 380.5C416 380 448 371 480 371.3C512 371.7 544 381.3 576 386.8C608 392.3 640 393.7 672 391C704 388.3 736 381.7 768 381.7C800 381.7 832 388.3 864 389.7C896 391 928 387 944 385L960 383L960 541L944 541C928 541 896 541 864 541C832 541 800 541 768 541C736 541 704 541 672 541C640 541 608 541 576 541C544 541 512 541 480 541C448 541 416 541 384 541C352 541 320 541 288 541C256 541 224 541 192 541C160 541 128 541 96 541C64 541 32 541 16 541L0 541Z" fill="#a7356d"></path><path d="M0 411L16 415C32 419 64 427 96 429C128 431 160 427 192 426.7C224 426.3 256 429.7 288 429.8C320 430 352 427 384 422.5C416 418 448 412 480 413.2C512 414.3 544 422.7 576 422.8C608 423 640 415 672 413.7C704 412.3 736 417.7 768 422.2C800 426.7 832 430.3 864 428.3C896 426.3 928 418.7 944 414.8L960 411L960 541L944 541C928 541 896 541 864 541C832 541 800 541 768 541C736 541 704 541 672 541C640 541 608 541 576 541C544 541 512 541 480 541C448 541 416 541 384 541C352 541 320 541 288 541C256 541 224 541 192 541C160 541 128 541 96 541C64 541 32 541 16 541L0 541Z" fill="#c23d59"></path><path d="M0 459L16 459.3C32 459.7 64 460.3 96 456.7C128 453 160 445 192 441.7C224 438.3 256 439.7 288 442.2C320 444.7 352 448.3 384 451C416 453.7 448 455.3 480 455C512 454.7 544 452.3 576 451C608 449.7 640 449.3 672 450.7C704 452 736 455 768 453.3C800 451.7 832 445.3 864 445.7C896 446 928 453 944 456.5L960 460L960 541L944 541C928 541 896 541 864 541C832 541 800 541 768 541C736 541 704 541 672 541C640 541 608 541 576 541C544 541 512 541 480 541C448 541 416 541 384 541C352 541 320 541 288 541C256 541 224 541 192 541C160 541 128 541 96 541C64 541 32 541 16 541L0 541Z" fill="#d15240"></path><path d="M0 481L16 481.3C32 481.7 64 482.3 96 482.5C128 482.7 160 482.3 192 484.5C224 486.7 256 491.3 288 494.8C320 498.3 352 500.7 384 501.5C416 502.3 448 501.7 480 499.2C512 496.7 544 492.3 576 490.7C608 489 640 490 672 491.2C704 492.3 736 493.7 768 491.7C800 489.7 832 484.3 864 483.5C896 482.7 928 486.3 944 488.2L960 490L960 541L944 541C928 541 896 541 864 541C832 541 800 541 768 541C736 541 704 541 672 541C640 541 608 541 576 541C544 541 512 541 480 541C448 541 416 541 384 541C352 541 320 541 288 541C256 541 224 541 192 541C160 541 128 541 96 541C64 541 32 541 16 541L0 541Z" fill="#d26e23"></path></svg>